<svg width="758" height="71" viewBox="0 0 758 71" fill="none" xmlns="http://www.w3.org/2000/svg">
<path d="M753.733 0.535939C754.265 0.388939 754.816 0.699945 754.964 1.23294L757.37 9.90494C757.518 10.4369 757.206 10.9879 756.674 11.1359C756.142 11.2839 755.591 10.9719 755.443 10.4399L753.304 2.73095L745.595 4.86994C745.063 5.01794 744.512 4.70594 744.364 4.17394C744.217 3.64194 744.528 3.09094 745.06 2.94294L753.733 0.535939ZM271.001 53.4999L271.231 54.4729C236.95 62.5599 183.382 64.43 131.414 61.915C79.4503 59.401 28.907 52.4939 0.680542 42.9469L1.00097 41.9999L1.3214 41.0519C29.275 50.5069 79.59 57.4049 131.511 59.9169C183.427 62.4299 236.769 60.5479 270.772 52.5259L271.001 53.4999ZM754 1.49994L754.871 1.99195C746.057 17.5759 727.026 28.8359 703.098 36.945C679.127 45.068 650.03 50.0979 620.798 53.0729C562.336 59.0219 503.14 56.772 482.889 54.493L483.001 53.4999L483.113 52.506C503.219 54.769 562.272 57.019 620.596 51.083C649.757 48.115 678.686 43.1059 702.456 35.0509C726.269 26.9809 744.693 15.9239 753.13 1.00794L754 1.49994ZM483.001 53.4999L482.889 54.493C426.694 48.17 353.625 35.0349 271.231 54.4729L271.001 53.4999L270.772 52.5259C353.583 32.9899 427.061 46.198 483.113 52.506L483.001 53.4999Z" fill="#333333"/>
<path d="M289 37H273C269.134 37 266 40.134 266 44V60C266 63.866 269.134 67 273 67H289C292.866 67 296 63.866 296 60V44C296 40.134 292.866 37 289 37Z" fill="#A5C6EB" stroke="white" stroke-width="8"/>
<path d="M641 63C649.284 63 656 56.2843 656 48C656 39.7157 649.284 33 641 33C632.716 33 626 39.7157 626 48C626 56.2843 632.716 63 641 63Z" fill="#F1BEB4" stroke="white" stroke-width="8"/>
<path d="M478.858 40.197C480.827 37.267 485.174 37.267 487.142 40.197L487.33 40.5L495.99 55.5L496.158 55.814C497.763 59.089 495.389 63 491.66 63H474.34C470.491 63 468.085 58.833 470.01 55.5L478.67 40.5L478.858 40.197Z" fill="#FFE88E" stroke="white" stroke-width="8"/>
</svg>
