<svg width="840" height="283" viewBox="0 0 840 283" fill="none" xmlns="http://www.w3.org/2000/svg">
<mask id="mask0_211_57" style="mask-type:alpha" maskUnits="userSpaceOnUse" x="0" y="0" width="840" height="283">
<rect width="840" height="283" rx="20" fill="url(#paint0_linear_211_57)"/>
</mask>
<g mask="url(#mask0_211_57)">
<path d="M531.636 250.996C531.358 251.473 531.519 252.085 531.996 252.364L539.769 256.901C540.246 257.179 540.858 257.018 541.136 256.541C541.415 256.064 541.254 255.452 540.777 255.173L533.868 251.14L537.901 244.231C538.179 243.754 538.018 243.142 537.541 242.864C537.064 242.585 536.452 242.746 536.173 243.223L531.636 250.996ZM532.5 251.5L532.754 252.467C579.777 240.106 617.237 226.23 664.51 222.797C711.731 219.368 768.759 226.374 854.675 255.946L855 255L855.325 254.054C769.241 224.425 711.935 217.348 664.365 220.803C616.846 224.253 579.056 238.227 532.246 250.533L532.5 251.5Z" fill="#333333"/>
<path d="M120.629 257.221C121.059 257.568 121.127 258.197 120.78 258.627L115.135 265.637C114.789 266.067 114.159 266.135 113.729 265.788C113.299 265.442 113.231 264.812 113.578 264.382L118.596 258.151L112.365 253.133C111.935 252.787 111.867 252.158 112.213 251.727C112.56 251.297 113.189 251.229 113.62 251.576L120.629 257.221ZM120.002 258L120.109 258.994C71.7607 264.206 45.6575 265.698 22.3161 278.772C-1.02155 291.843 -21.6583 316.542 -58.6843 368.58L-59.4991 368L-60.3139 367.42C-23.3409 315.457 -2.45849 290.356 21.3388 277.027C45.1323 263.7 71.78 262.192 119.894 257.006L120.002 258Z" fill="#333333"/>
<path d="M493.894 265.08C494.401 265.298 494.636 265.886 494.417 266.394L490.862 274.662C490.644 275.169 490.056 275.404 489.548 275.185C489.041 274.967 488.806 274.379 489.025 273.872L492.185 266.522L484.836 263.362C484.328 263.144 484.094 262.556 484.312 262.048C484.53 261.541 485.118 261.306 485.626 261.525L493.894 265.08ZM156.821 255.56C156.294 255.396 155.999 254.836 156.163 254.308L158.831 245.713C158.995 245.186 159.556 244.891 160.083 245.055C160.61 245.218 160.905 245.779 160.741 246.306L158.369 253.946L166.01 256.318C166.537 256.482 166.832 257.043 166.668 257.57C166.504 258.097 165.944 258.392 165.417 258.228L156.821 255.56ZM493.499 265.999L493.869 266.928C476.361 273.906 452.259 273.555 424.693 269.977C397.099 266.395 365.811 259.543 333.887 253.369C301.931 247.189 269.306 241.682 238.917 240.746C208.521 239.81 180.461 243.453 157.583 255.49L157.118 254.605L156.652 253.72C179.965 241.454 208.423 237.806 238.978 238.747C269.54 239.688 302.3 245.224 334.266 251.406C366.265 257.594 397.438 264.422 424.95 267.994C452.489 271.568 476.137 271.842 493.128 265.07L493.499 265.999Z" fill="#333333"/>
<circle cx="512.5" cy="258.5" r="10.5" fill="#333333"/>
<circle cx="139.502" cy="254.5" r="9" stroke="#333333" stroke-width="3"/>
</g>
<defs>
<linearGradient id="paint0_linear_211_57" x1="47" y1="561.5" x2="859" y2="-14" gradientUnits="userSpaceOnUse">
<stop stop-color="#D1D5D8"/>
<stop offset="0.25" stop-color="#FFE88E"/>
<stop offset="0.5" stop-color="#F1BEB4"/>
<stop offset="1" stop-color="#A5C6EB"/>
</linearGradient>
</defs>
</svg>
