<svg width="57" height="57" viewBox="0 0 57 57" fill="none" xmlns="http://www.w3.org/2000/svg">
<path d="M36.8625 0.617188C42.4292 0.617188 45.2125 0.617188 48.2432 1.54497C51.5214 2.72015 54.1192 5.31793 55.2943 8.59608C56.284 11.6268 56.284 14.472 56.284 20.0387V36.8624C56.284 42.429 56.284 45.2124 55.3562 48.2431C54.181 51.5213 51.5832 54.119 48.3051 55.2942C45.2743 56.2839 42.4292 56.2839 36.8625 56.2839H20.0388C14.4721 56.2839 11.6888 56.2839 8.65805 55.3561C5.3799 54.119 2.78212 51.5831 1.60694 48.2431C0.617309 45.2742 0.61731 42.4909 0.61731 36.8624V20.0387C0.61731 14.472 0.61731 11.6887 1.54509 8.65793C2.78212 5.37978 5.3799 2.782 8.65805 1.60682C11.6269 0.617187 14.4721 0.617188 20.0388 0.617188H36.8625Z" fill="url(#paint0_linear_266_394)"/>
<path d="M46.3258 40.5122C46.2639 40.5122 46.1402 40.574 46.0784 40.574H10.8228C10.7609 40.574 10.6372 40.574 10.5754 40.5122L21.585 29.5025L23.9354 31.9148C26.4713 34.5125 30.4917 34.5125 33.0276 31.9148L35.378 29.5025L46.3258 40.5122ZM47.0061 39.337V17.5033C47.0061 17.3796 47.0061 17.2559 46.9443 17.194C46.8824 17.3177 35.9965 28.5748 35.9965 28.5748L47.0061 39.5844C47.0061 39.4607 47.0061 39.3988 47.0061 39.337ZM9.89502 39.3988V17.627C9.89502 17.5033 9.89502 17.3796 9.95687 17.3177C10.0187 17.4414 20.9046 28.6985 20.9046 28.6985L9.95687 39.6463C9.89502 39.5844 9.89502 39.4607 9.89502 39.3988ZM46.3876 16.4518L32.3472 30.8014C30.1824 32.9663 26.7187 32.9663 24.6158 30.8014L10.5754 16.4518C10.5135 16.39 46.3876 16.4518 46.3876 16.4518Z" fill="white"/>
<defs>
<linearGradient id="paint0_linear_266_394" x1="28.4494" y1="0.634506" x2="28.4494" y2="56.2826" gradientUnits="userSpaceOnUse">
<stop stop-color="#1E51EE"/>
<stop offset="1" stop-color="#19E6FF"/>
</linearGradient>
</defs>
</svg>
