<svg width="76" height="55" viewBox="0 0 76 55" fill="none" xmlns="http://www.w3.org/2000/svg">
<path d="M4.35915 0H71.6415C72.8407 0 73.9305 0.491475 74.7197 1.28068C75.5095 2.07113 76 3.16364 76 4.36261V50.6374C76 51.5417 75.7211 52.3842 75.2448 53.083C75.1576 53.3089 75.0215 53.5194 74.8354 53.6983C74.7111 53.8153 74.5744 53.9112 74.4296 53.9836C73.672 54.6156 72.6985 55.0006 71.6415 55.0006H4.35915C3.16113 55.0006 2.0701 54.5098 1.27967 53.7193C0.491085 52.9295 0 51.8388 0 50.6374V4.36261C0 3.16116 0.489848 2.06989 1.27905 1.28068C2.06825 0.490237 3.15865 0 4.35915 0ZM3.34358 48.8021L26.9231 25.1444L3.34358 5.90389V48.8021ZM29.5201 27.2632L5.2102 51.6538H70.5857L47.3538 27.2669L39.695 33.7979C39.0944 34.3116 38.1951 34.3407 37.5593 33.8245L29.5201 27.2632ZM49.8964 25.0993L72.6564 48.9909V5.69343L49.8964 25.0993ZM5.48419 3.34624L38.5866 30.3582L70.2678 3.34624H5.48419Z" fill="#333333"/>
</svg>
