<svg width="75" height="57" viewBox="0 0 75 57" fill="none" xmlns="http://www.w3.org/2000/svg">
<path d="M5.61541 56.2844H17.4227V27.6122L0.563782 14.9771V51.2811C0.563782 54.0486 2.84789 56.2844 5.61541 56.2844Z" fill="#4285F4"/>
<path d="M57.9505 56.2844H69.7578C72.5797 56.2844 74.8094 54.0003 74.8094 51.2327V14.9771L57.9505 27.6122V56.2844Z" fill="#34A853"/>
<path d="M57.9505 5.69508V27.6116L74.8154 14.9765V8.22089C74.8154 1.9547 67.6731 -1.59836 62.6637 2.14806L57.9505 5.69508Z" fill="#FBBC04"/>
<path d="M17.4227 27.6119V5.69531L37.6897 20.9046L57.9506 5.69531V27.6119L37.6897 42.7728L17.4227 27.6119Z" fill="#EA4335"/>
<path d="M0.563782 8.22126V14.9769L17.4287 27.612V5.69545L12.7155 2.14844C7.70615 -1.59194 0.563782 2.00341 0.563782 8.22126Z" fill="#C5221F"/>
</svg>
