<svg width="75" height="61" viewBox="0 0 75 61" fill="none" xmlns="http://www.w3.org/2000/svg">
<path d="M70.275 51.125L47.357 30.5M27.6429 30.5L4.7251 51.125M3 13.3125L31.1689 32.9592C33.45 34.5504 34.5906 35.3458 35.8312 35.6538C36.927 35.9261 38.073 35.9261 39.1688 35.6538C40.4094 35.3458 41.55 34.5504 43.8311 32.9592L72 13.3125M19.56 58H55.44C61.2367 58 64.1347 58 66.3489 56.8759C68.2964 55.8873 69.8796 54.3098 70.8719 52.3694C72 50.1632 72 47.2757 72 41.5V19.5C72 13.7245 72 10.8367 70.8719 8.63073C69.8796 6.69029 68.2964 5.11269 66.3489 4.12399C64.1347 3 61.2367 3 55.44 3H19.56C13.7634 3 10.8652 3 8.6512 4.12399C6.70371 5.11269 5.12037 6.69029 4.12808 8.63073C3 10.8367 3 13.7245 3 19.5V41.5C3 47.2757 3 50.1632 4.12808 52.3694C5.12037 54.3098 6.70371 55.8873 8.6512 56.8759C10.8652 58 13.7634 58 19.56 58Z" stroke="#333333" stroke-width="5" stroke-linecap="round" stroke-linejoin="round"/>
</svg>
