<svg width="61" height="59" viewBox="0 0 61 59" fill="none" xmlns="http://www.w3.org/2000/svg">
<path d="M35.296 5.05758L55.998 18.5139C56.7295 18.9894 57.0953 19.2271 57.3604 19.5442C57.5949 19.825 57.7709 20.1497 57.8784 20.4994C58 20.8944 58 21.3306 58 22.2031V42.3653C58 46.9856 58 49.2958 57.1008 51.0608C56.3099 52.6129 55.0479 53.8751 53.4955 54.666C51.7305 55.5653 49.4206 55.5653 44.8 55.5653H16.2C11.5796 55.5653 9.26934 55.5653 7.50458 54.666C5.95224 53.8751 4.69015 52.6129 3.8992 51.0608C3 49.2958 3 46.9856 3 42.3653V22.2031C3 21.3306 3 20.8944 3.12147 20.4994C3.22899 20.1497 3.40521 19.825 3.63979 19.5442C3.90478 19.2271 4.27053 18.9894 5.00205 18.5139L25.704 5.05758M35.296 5.05758C33.5599 3.92923 32.692 3.36504 31.7567 3.14553C30.9301 2.95149 30.0699 2.95149 29.2433 3.14553C28.308 3.36504 27.4401 3.92923 25.704 5.05758M35.296 5.05758L52.3243 16.1261C54.216 17.3556 55.1617 17.9704 55.4892 18.75C55.7755 19.4313 55.7755 20.1992 55.4892 20.8805C55.1617 21.6601 54.216 22.2749 52.3243 23.5044L35.296 34.5729C33.5599 35.7012 32.692 36.2655 31.7567 36.485C30.9301 36.6788 30.0699 36.6788 29.2433 36.485C28.308 36.2655 27.4401 35.7012 25.704 34.5729L8.67561 23.5044C6.78403 22.2749 5.83825 21.6601 5.51067 20.8805C5.22442 20.1992 5.22442 19.4313 5.51067 18.75C5.83825 17.9704 6.78403 17.3556 8.67561 16.1261L25.704 5.05758M56.625 50.0653L38.3573 33.5653M22.6428 33.5653L4.375 50.0653" stroke="#333333" stroke-width="5" stroke-linecap="round" stroke-linejoin="round"/>
</svg>
