<svg width="60" height="57" viewBox="0 0 60 57" fill="none" xmlns="http://www.w3.org/2000/svg">
<path d="M59.8703 29.8428C59.8738 29.3753 59.6319 28.9394 59.2333 28.6951H59.2263L59.2018 28.6811L38.4653 16.4066C38.3753 16.3458 38.283 16.2908 38.1871 16.2406C37.3865 15.828 36.4351 15.828 35.6345 16.2406C35.5387 16.2908 35.4452 16.3458 35.3564 16.4066L14.6199 28.6799L14.5953 28.6939C13.9618 29.0878 13.7678 29.9211 14.1617 30.5546C14.2774 30.7416 14.4375 30.8971 14.6281 31.0081L35.3634 43.2826C35.4534 43.3422 35.5457 43.3983 35.6415 43.4486C36.4422 43.8612 37.3935 43.8612 38.1941 43.4486C38.29 43.3983 38.3823 43.3434 38.4723 43.2826L59.2076 31.0081C59.6225 30.7673 59.875 30.322 59.8703 29.8428Z" fill="#0A2767"/>
<path d="M17.0381 21.647H30.6462V34.1202H17.0381V21.647ZM57.0875 8.96695V3.26097C57.1202 1.83389 55.9912 0.651082 54.5641 0.617188H19.2517C17.8247 0.651082 16.6956 1.83506 16.7284 3.26097V8.96695L37.6028 14.5338L57.0875 8.96695Z" fill="#0364B8"/>
<path d="M16.7283 8.96729H30.645V21.4919H16.7283V8.96729Z" fill="#0078D4"/>
<path d="M44.5616 8.96729H30.645V21.4919L44.5616 34.0166H57.0862V21.4931L44.5616 8.96729Z" fill="#28A8EA"/>
<path d="M30.645 21.4932H44.5616V34.0178H30.645V21.4932Z" fill="#0078D4"/>
<path d="M30.645 34.0176H44.5616V46.5422H30.645V34.0176Z" fill="#0364B8"/>
<path d="M17.0381 34.1201H30.6462V45.4596H17.0381V34.1201Z" fill="#14447D"/>
<path d="M44.5616 34.0176H57.0863V46.5422H44.5616V34.0176Z" fill="#0078D4"/>
<path d="M59.2333 30.9318L59.2065 30.9458L38.4711 42.6079C38.3812 42.664 38.2888 42.7166 38.193 42.7633C37.8412 42.9305 37.4578 43.0263 37.0686 43.0415L35.9361 42.3788C35.8402 42.3309 35.7479 42.2771 35.6579 42.2187L14.6432 30.2258H14.6339L13.9467 29.8413V53.4506C13.9572 55.0262 15.2428 56.2943 16.8172 56.2838H57.0442C57.0676 56.2838 57.0886 56.2721 57.1143 56.2721C57.4474 56.251 57.7747 56.1821 58.0879 56.0687C58.2235 56.0114 58.3544 55.9437 58.4795 55.8653C58.573 55.8128 58.7331 55.697 58.7331 55.697C59.4461 55.1699 59.868 54.3366 59.8715 53.4495V29.8425C59.8703 30.2936 59.626 30.7097 59.2333 30.9318Z" fill="url(#paint0_linear_266_392)"/>
<path opacity="0.5" d="M58.7565 29.7491V31.196L37.0745 46.1248L14.6269 30.2365C14.6269 30.2283 14.6211 30.2224 14.6129 30.2224L12.5535 28.9835V27.9398L13.4021 27.9258L15.1973 28.9555L15.2394 28.9695L15.3925 29.0665C15.3925 29.0665 36.4901 41.1049 36.5462 41.1318L37.3539 41.6052C37.424 41.5771 37.4929 41.5491 37.5771 41.5222C37.6192 41.4941 58.5216 29.7351 58.5216 29.7351L58.7565 29.7491Z" fill="#0A2767"/>
<path d="M59.2333 30.9321L59.2065 30.9473L38.4711 42.6093C38.3812 42.6655 38.2888 42.718 38.193 42.7648C37.3877 43.1587 36.4457 43.1587 35.6404 42.7648C35.5445 42.718 35.4522 42.6655 35.3622 42.6093L14.6269 30.9473L14.6023 30.9321C14.2014 30.7147 13.9513 30.2974 13.9467 29.8428V53.4509C13.9572 55.0253 15.2417 56.2946 16.816 56.2841H57.0021C58.5765 56.2946 59.8621 55.0253 59.8715 53.4509V29.8428C59.8703 30.2939 59.626 30.71 59.2333 30.9321Z" fill="#1490DF"/>
<path opacity="0.1" d="M38.7726 42.4375L38.4617 42.6116C38.3717 42.6689 38.2794 42.7215 38.1836 42.7694C37.8411 42.9377 37.4695 43.0359 37.0896 43.0593L44.9789 52.3885L58.7412 55.7043C59.1187 55.4191 59.418 55.0451 59.6143 54.615L38.7726 42.4375Z" fill="black"/>
<path opacity="0.05" d="M40.1787 41.6465L38.463 42.6107C38.373 42.668 38.2806 42.7206 38.1848 42.7685C37.8423 42.9368 37.4707 43.035 37.0908 43.0584L40.7865 53.249L58.746 55.6999C59.4531 55.1693 59.8703 54.3359 59.8703 53.4512V53.1461L40.1787 41.6465Z" fill="black"/>
<path d="M16.8546 56.2841H56.9975C57.6158 56.2876 58.2177 56.0924 58.7156 55.7277L35.9337 42.3826C35.8379 42.3347 35.7456 42.2809 35.6556 42.2225L14.6409 30.2296H14.6316L13.9455 29.8428V53.3703C13.9443 54.9774 15.2463 56.2829 16.8546 56.2841Z" fill="#28A8EA"/>
<path opacity="0.1" d="M33.429 14.3013V43.9859C33.4267 45.0261 32.7932 45.9623 31.829 46.3515C31.5298 46.4801 31.2084 46.5467 30.8823 46.5467H13.9455V13.143H16.7284V11.751H30.8811C32.2883 11.7557 33.4255 12.8952 33.429 14.3013Z" fill="black"/>
<path opacity="0.2" d="M32.037 15.6931V45.3778C32.0405 45.7144 31.9692 46.0463 31.8278 46.3514C31.4409 47.3039 30.5176 47.9292 29.4903 47.9339H13.9455V13.1417H29.4903C29.8935 13.1382 30.292 13.2387 30.645 13.4339C31.4982 13.864 32.037 14.7382 32.037 15.6931Z" fill="black"/>
<path opacity="0.2" d="M32.037 15.6931V42.5938C32.03 43.9986 30.8951 45.1382 29.4903 45.1499H13.9455V13.1417H29.4903C29.8935 13.1382 30.292 13.2387 30.645 13.4339C31.4982 13.864 32.037 14.7382 32.037 15.6931Z" fill="black"/>
<path opacity="0.2" d="M30.645 15.6935V42.5942C30.6438 44.0014 29.5055 45.1433 28.0982 45.1503H13.9455V13.1421H28.0982C29.5055 13.1433 30.6462 14.284 30.645 15.6912C30.645 15.6924 30.645 15.6924 30.645 15.6935Z" fill="black"/>
<path d="M2.58025 13.1421H28.0947C29.5031 13.1421 30.6461 14.284 30.6461 15.6935V41.208C30.6461 42.6164 29.5042 43.7594 28.0947 43.7594H2.58025C1.17071 43.7594 0.0288086 42.6164 0.0288086 41.208V15.6935C0.0288086 14.2852 1.17071 13.1421 2.58025 13.1421Z" fill="url(#paint1_linear_266_392)"/>
<path d="M8.00226 23.8406C8.63106 22.5012 9.64556 21.3803 10.916 20.6218C12.3232 19.8165 13.9256 19.4144 15.5456 19.4612C17.0474 19.4285 18.5294 19.8095 19.8303 20.5622C21.0528 21.2915 22.0381 22.3598 22.6646 23.6372C23.3483 25.0456 23.6884 26.5954 23.6581 28.1604C23.6908 29.7955 23.3413 31.4166 22.6354 32.8916C21.9937 34.2158 20.9769 35.3215 19.7134 36.0742C18.3623 36.8503 16.8254 37.2406 15.2686 37.2044C13.7339 37.2418 12.2192 36.8561 10.8891 36.0906C9.65608 35.3601 8.65911 34.2906 8.01628 33.0097C7.32904 31.6223 6.98425 30.0889 7.01113 28.5414C6.98308 26.9203 7.32203 25.3133 8.00226 23.8406ZM11.1077 31.3979C11.4431 32.2453 12.0112 32.9793 12.7475 33.5157C13.4967 34.0394 14.3943 34.3093 15.3083 34.2871C16.2819 34.3257 17.2415 34.0464 18.0421 33.4912C18.769 32.9559 19.3219 32.2196 19.6339 31.3734C19.9834 30.4278 20.1552 29.4262 20.1424 28.4187C20.1529 27.4019 19.9916 26.3897 19.6632 25.4266C19.3733 24.5571 18.838 23.7903 18.1215 23.22C17.3408 22.6391 16.3847 22.3434 15.4123 22.3855C14.4785 22.3609 13.561 22.6332 12.7919 23.1639C12.0439 23.7027 11.4642 24.4437 11.1217 25.3004C10.362 27.2628 10.3573 29.4379 11.11 31.4026L11.1077 31.3979Z" fill="white"/>
<path d="M44.5616 8.96729H57.0863V21.4919H44.5616V8.96729Z" fill="#50D9FF"/>
<defs>
<linearGradient id="paint0_linear_266_392" x1="36.9078" y1="29.8421" x2="36.9078" y2="56.2838" gradientUnits="userSpaceOnUse">
<stop stop-color="#35B8F1"/>
<stop offset="1" stop-color="#28A8EA"/>
</linearGradient>
<linearGradient id="paint1_linear_266_392" x1="5.34752" y1="11.1493" x2="25.3266" y2="45.7523" gradientUnits="userSpaceOnUse">
<stop stop-color="#1784D9"/>
<stop offset="0.5" stop-color="#107AD5"/>
<stop offset="1" stop-color="#0A63C9"/>
</linearGradient>
</defs>
</svg>
