<svg width="49" height="50" viewBox="0 0 49 50" fill="none" xmlns="http://www.w3.org/2000/svg">
<path d="M21.6168 3.02894C22.449 0.134132 26.551 0.134132 27.3832 3.02894L31.2069 16.3293C31.4947 17.3304 32.2813 18.1106 33.2847 18.3903L46.6314 22.1101C49.5575 22.9257 49.5575 27.0743 46.6314 27.8899L33.2847 31.6097C32.2813 31.8894 31.4947 32.6696 31.2069 33.6707L27.3832 46.9711C26.551 49.8659 22.449 49.8659 21.6168 46.9711L17.7931 33.6707C17.5053 32.6696 16.7187 31.8894 15.7153 31.6097L2.36862 27.8899C-0.557463 27.0743 -0.557466 22.9257 2.36862 22.1101L15.7153 18.3903C16.7187 18.1106 17.5053 17.3304 17.7931 16.3293L21.6168 3.02894Z" fill="white"/>
</svg>
